<mxfile host="app.diagrams.net" modified="2023-11-15T17:01:56.420Z" agent="Mozilla/5.0 (Windows NT 10.0; Win64; x64) AppleWebKit/537.36 (KHTML, like Gecko) Chrome/119.0.0.0 Safari/537.36" etag="qJgVOYDp8vA7R1lzheiW" version="22.1.1" type="device">
  <diagram name="Trang-1" id="7GlB9vw2w-6UPG1qyjAg">
    <mxGraphModel dx="1290" dy="566" grid="1" gridSize="10" guides="1" tooltips="1" connect="1" arrows="1" fold="1" page="1" pageScale="1" pageWidth="827" pageHeight="1169" math="0" shadow="0">
      <root>
        <mxCell id="0" />
        <mxCell id="1" parent="0" />
        <mxCell id="MgoVAXl5t23KKsBatAJX-13" value="" style="rounded=0;whiteSpace=wrap;html=1;" parent="1" vertex="1">
          <mxGeometry x="20" y="30" width="790" height="420" as="geometry" />
        </mxCell>
        <mxCell id="MgoVAXl5t23KKsBatAJX-1" value="Students" style="shape=umlActor;verticalLabelPosition=bottom;verticalAlign=top;html=1;outlineConnect=0;" parent="1" vertex="1">
          <mxGeometry x="120" y="180" width="30" height="60" as="geometry" />
        </mxCell>
        <mxCell id="MgoVAXl5t23KKsBatAJX-2" value="" style="endArrow=none;html=1;rounded=0;entryX=0.005;entryY=0.449;entryDx=0;entryDy=0;entryPerimeter=0;exitX=1;exitY=0.3333333333333333;exitDx=0;exitDy=0;exitPerimeter=0;" parent="1" source="MgoVAXl5t23KKsBatAJX-1" target="MgoVAXl5t23KKsBatAJX-4" edge="1">
          <mxGeometry width="50" height="50" relative="1" as="geometry">
            <mxPoint x="140" y="220" as="sourcePoint" />
            <mxPoint x="170" y="340" as="targetPoint" />
          </mxGeometry>
        </mxCell>
        <mxCell id="MgoVAXl5t23KKsBatAJX-4" value="Register for a mentor teacher" style="ellipse;whiteSpace=wrap;html=1;" parent="1" vertex="1">
          <mxGeometry x="280" y="190" width="120" height="70" as="geometry" />
        </mxCell>
        <mxCell id="MgoVAXl5t23KKsBatAJX-6" value="&amp;lt;&amp;lt;include&amp;gt;&amp;gt;" style="html=1;verticalAlign=bottom;endArrow=open;dashed=1;endSize=8;curved=0;rounded=0;exitX=0.995;exitY=0.418;exitDx=0;exitDy=0;exitPerimeter=0;entryX=0.011;entryY=0.62;entryDx=0;entryDy=0;entryPerimeter=0;" parent="1" source="MgoVAXl5t23KKsBatAJX-4" target="MgoVAXl5t23KKsBatAJX-7" edge="1">
          <mxGeometry x="0.0784" y="6" relative="1" as="geometry">
            <mxPoint x="410" y="220" as="sourcePoint" />
            <mxPoint x="520" y="160" as="targetPoint" />
            <mxPoint as="offset" />
          </mxGeometry>
        </mxCell>
        <mxCell id="MgoVAXl5t23KKsBatAJX-7" value="Log in" style="ellipse;whiteSpace=wrap;html=1;" parent="1" vertex="1">
          <mxGeometry x="550" y="140" width="120" height="60" as="geometry" />
        </mxCell>
        <mxCell id="MgoVAXl5t23KKsBatAJX-12" value="View mentor teacher" style="ellipse;whiteSpace=wrap;html=1;" parent="1" vertex="1">
          <mxGeometry x="550" y="230" width="120" height="60" as="geometry" />
        </mxCell>
        <mxCell id="MgoVAXl5t23KKsBatAJX-14" value="Register for a mentor teacher" style="shape=umlFrame;whiteSpace=wrap;html=1;pointerEvents=0;width=100;height=40;" parent="1" vertex="1">
          <mxGeometry x="100" y="120" width="590" height="200" as="geometry" />
        </mxCell>
        <mxCell id="KjkoHSXGICIYYXHejMG7-2" value="&amp;lt;&amp;lt;include&amp;gt;&amp;gt;" style="html=1;verticalAlign=bottom;endArrow=open;dashed=1;endSize=8;curved=0;rounded=0;exitX=0.992;exitY=0.436;exitDx=0;exitDy=0;exitPerimeter=0;" edge="1" parent="1" source="MgoVAXl5t23KKsBatAJX-4" target="MgoVAXl5t23KKsBatAJX-12">
          <mxGeometry x="0.0784" y="6" relative="1" as="geometry">
            <mxPoint x="409" y="229" as="sourcePoint" />
            <mxPoint x="561" y="187" as="targetPoint" />
            <mxPoint as="offset" />
          </mxGeometry>
        </mxCell>
      </root>
    </mxGraphModel>
  </diagram>
</mxfile>
